<?xml version="1.0" standalone="no"?><!DOCTYPE svg PUBLIC "-//W3C//DTD SVG 1.1//EN" "http://www.w3.org/Graphics/SVG/1.1/DTD/svg11.dtd"><svg t="1503898699477" class="icon" style="" viewBox="0 0 1024 1024" version="1.1" xmlns="http://www.w3.org/2000/svg" p-id="8498" xmlns:xlink="http://www.w3.org/1999/xlink" width="200" height="200"><defs><style type="text/css"></style></defs><path d="M60.373408 591.180857c-38.269613 90.131148-44.501125 176.130533-13.749967 192.206028 21.200688 11.063192 54.43542-14.133792 85.525248-60.395997 12.327557 50.371391 42.80778 96.023991 86.338054 132.622837-45.652601 16.865723-75.478063 44.388236-75.478063 75.613531 0 51.297086 80.693568 92.795345 180.307452 92.795345 89.837635 0 164.254535-33.708869 177.981924-78.029371 3.702783-0.067734 17.881731-0.067734 21.449046 0 13.795123 44.252768 88.257179 78.029371 178.049658 78.029371 99.591306 0 180.307452-41.543415 180.307452-92.795345 0-31.157561-29.802885-58.747807-75.500641-75.613531 43.485118-36.644001 74.055653-82.251446 86.315476-132.622837 31.112405 46.262205 64.256826 71.459189 85.480092 60.395997 30.751158-16.075495 24.70027-102.097458-13.727389-192.206028-30.07382-70.827007-70.894741-122.982055-102.097458-134.496806 0.474137-4.493011 0.677338-9.076333 0.677338-13.637078 0-27.364467-7.608767-52.674341-20.591084-73.288003 0.225779-1.580456 0.225779-3.228646 0.225779-4.809102 0-12.598492-3.002866-24.406756-8.105482-34.634564C825.878562 146.214758 706.012263 0 512.045156 0 317.965159 0 198.053704 146.214758 190.241736 330.315305c-5.170349 10.272964-8.150637 22.081228-8.150637 34.634564 0 1.580456 0.11289 3.228646 0.180624 4.809102C169.379716 390.372633 161.77095 415.637351 161.77095 443.046974c0 4.538167 0.180624 9.076333 0.564449 13.637078C131.358461 468.198802 90.402072 520.399006 60.373408 591.180857L60.373408 591.180857z" p-id="8499"></path></svg>