<?xml version="1.0" standalone="no"?><!DOCTYPE svg PUBLIC "-//W3C//DTD SVG 1.1//EN" "http://www.w3.org/Graphics/SVG/1.1/DTD/svg11.dtd"><svg t="1503899015515" class="icon" style="" viewBox="0 0 1024 1024" version="1.1" xmlns="http://www.w3.org/2000/svg" p-id="10003" xmlns:xlink="http://www.w3.org/1999/xlink" width="200" height="200"><defs><style type="text/css"></style></defs><path d="M307.5072 675.7376c22.528-25.6 312.832-189.7472 312.832-189.7472l-378.9824-51.2 506.88-6.0416c0 0 18.0224 15.0528 0 36.1472-18.0224 21.0944-287.232 206.336-287.232 206.336l306.176 24.576-9.3184-54.3744L1003.52 401.408l-339.6608-49.3568L512 43.8272l-151.8592 308.224L20.48 401.408l245.76 239.9232-57.9584 338.8416L512 820.224l303.7184 159.9488-47.616-278.2208-460.6976 20.3776C307.5072 722.432 284.8768 701.3376 307.5072 675.7376z" p-id="10004"></path><path d="M767.0784 695.808l1.024 6.2464 49.2544-2.2528L767.0784 695.808z" p-id="10005"></path></svg>